<svg id="Capa_1" enable-background="new 0 0 510 510" height="512" viewBox="0 0 510 510" width="512" xmlns="http://www.w3.org/2000/svg"><path d="m495 320.506h-21.747v-202.11c0-28.212-22.951-51.163-51.163-51.163h-334.18c-28.211 0-51.163 22.951-51.163 51.163v202.109h-21.747c-8.284 0-15 6.716-15 15v57.711c0 27.322 22.228 49.55 49.549 49.55h410.901c27.322 0 49.55-22.228 49.55-49.55v-57.711c0-8.283-6.716-14.999-15-14.999zm-428.253-202.11c0-11.669 9.494-21.163 21.163-21.163h334.18c11.669 0 21.163 9.494 21.163 21.163v202.109c-51.375 0-335.751 0-376.506 0v-202.109zm133.685 232.11h109.137v12.021c0 2.267-1.844 4.11-4.11 4.11h-100.917c-2.267 0-4.11-1.844-4.11-4.11zm279.568 42.711c0 10.78-8.77 19.55-19.55 19.55h-410.901c-10.779 0-19.549-8.77-19.549-19.55v-42.711h140.432v12.021c0 18.809 15.302 34.11 34.11 34.11h100.916c18.809 0 34.11-15.302 34.11-34.11v-12.021h140.432z"/><path d="m195.942 230.257c0-8.284-6.716-15-15-15h-4.532v-32.527c0-8.284-6.716-15-15-15s-15 6.716-15 15v32.527h-20.366l7.601-59.332c1.053-8.218-4.755-15.732-12.973-16.784-8.209-1.049-15.731 4.755-16.784 12.972l-9.766 76.238c-1.149 8.964 5.843 16.906 14.878 16.906h37.41v17.584c0 8.284 6.716 15 15 15s15-6.716 15-15v-17.584h4.532c8.284 0 15-6.716 15-15z"/><path d="m329.058 245.257h37.41v17.584c0 8.284 6.716 15 15 15s15-6.716 15-15v-17.584h4.532c8.284 0 15-6.716 15-15s-6.716-15-15-15h-4.532v-32.527c0-8.284-6.716-15-15-15s-15 6.716-15 15v32.527h-20.366l7.601-59.332c1.053-8.218-4.755-15.732-12.972-16.784-8.229-1.05-15.731 4.756-16.785 12.972l-9.766 76.238c-1.149 8.965 5.843 16.906 14.878 16.906z"/><path d="m255 279.274c22.721 0 41.205-18.484 41.205-41.205v-57.846c0-22.721-18.484-41.205-41.205-41.205s-41.205 18.484-41.205 41.205v57.846c0 22.721 18.484 41.205 41.205 41.205zm-11.205-99.05c0-6.179 5.026-11.205 11.205-11.205s11.205 5.026 11.205 11.205v57.846c0 6.179-5.026 11.205-11.205 11.205s-11.205-5.026-11.205-11.205z"/></svg>