<svg width="20" height="19" viewBox="0 0 20 19" fill="none" xmlns="http://www.w3.org/2000/svg">
<g clip-path="url(#clip0)">
<path d="M8.80758 0C3.95121 0 0 3.75365 0 8.3672C0 12.981 3.95121 16.7344 8.80758 16.7344C13.6642 16.7344 17.6152 12.981 17.6152 8.3672C17.6152 3.75365 13.6642 0 8.80758 0ZM8.80758 15.1897C4.84769 15.1897 1.62602 12.1291 1.62602 8.36724C1.62602 4.60535 4.84769 1.54471 8.80758 1.54471C12.7675 1.54471 15.9891 4.60531 15.9891 8.3672C15.9891 12.1291 12.7675 15.1897 8.80758 15.1897Z" fill="#1A1A2E"/>
<path d="M19.7618 17.6816L15.1005 13.2534C14.7829 12.9517 14.2685 12.9517 13.9509 13.2534C13.6333 13.5549 13.6333 14.0441 13.9509 14.3455L18.6122 18.7737C18.771 18.9246 18.9789 19 19.187 19C19.3949 19 19.603 18.9246 19.7618 18.7737C20.0794 18.4722 20.0794 17.9831 19.7618 17.6816Z" fill="#1A1A2E"/>
</g>
<defs>
<clipPath id="clip0">
<rect width="20" height="19" fill="white"/>
</clipPath>
</defs>
</svg>