<svg width="30" height="29" viewBox="0 0 30 29" fill="none" xmlns="http://www.w3.org/2000/svg">
<g clip-path="url(#clip0)">
<path d="M19.374 21.6231H18.1244C17.7793 21.6231 17.4995 21.8889 17.4995 22.2167V26.3717H2.50403V2.62882H17.4995V6.78384C17.4995 7.11166 17.7793 7.37744 18.1244 7.37744H19.374C19.719 7.37744 19.9988 7.11166 19.9988 6.78384V2.62882C19.9987 1.31755 18.8798 0.254517 17.4995 0.254517H2.50403C1.12374 0.254517 0.00476074 1.31755 0.00476074 2.62882V26.3717C0.00476074 27.683 1.12374 28.746 2.50403 28.746H17.4995C18.8798 28.746 19.9988 27.683 19.9988 26.3717V22.2166C19.9987 21.8889 19.719 21.6231 19.374 21.6231Z" fill="white"/>
<path d="M29.793 14.0624L22.2952 7.53308C22.1122 7.37482 21.8467 7.33136 21.6216 7.42757C21.3946 7.52206 21.2482 7.73536 21.2482 7.97069V9.15787C21.2482 9.32598 21.3232 9.48653 21.455 9.59899L25.7985 13.3129H8.12709C7.78173 13.3129 7.50226 13.5784 7.50226 13.9065V15.0936C7.50226 15.4217 7.78173 15.6872 8.12709 15.6872H25.7985L21.455 19.4011C21.3232 19.5136 21.2482 19.6741 21.2482 19.8422V21.0293C21.2482 21.2647 21.3946 21.478 21.6216 21.5725C21.7021 21.6067 21.7882 21.6229 21.873 21.6229C22.0262 21.6229 22.1775 21.569 22.2952 21.467L29.793 14.9377C29.9223 14.8252 29.9955 14.6664 29.9955 14.5C29.9955 14.3336 29.9223 14.1748 29.793 14.0624Z" fill="white"/>
</g>
<defs>
<clipPath id="clip0">
<rect width="30" height="28.5" fill="white" transform="translate(0 0.25)"/>
</clipPath>
</defs>
</svg>